<?xml version="1.0" encoding="UTF-8"?>
<svg id="Layer_2" data-name="Layer 2" xmlns="http://www.w3.org/2000/svg" viewBox="0 0 1080.33 1080">
  <defs>
    <style>
      .cls-1 {
        fill: #fff;
      }
    </style>
  </defs>
  <g id="Color">
    <path class="cls-1" d="M1079.83,1055.56c-4.08-64.44-19.53-126.97-46.03-186.21-28.71-64.18-69.13-121.85-120.14-171.41-50.81-49.37-109.48-88.15-174.4-115.26-59.77-24.96-122.38-38.95-186.44-41.68,64.04-2.76,126.64-16.85,186.44-41.99,64.89-27.29,123.56-66.3,174.4-115.95,50.99-49.8,91.41-107.71,120.14-172.1,26.51-59.42,41.95-122.05,46.03-186.52V1055.56Z"/>
    <path d="M1079.33,37.71v1004.6c-5.25-59.83-20.36-117.92-45.08-173.16-14.32-32-31.86-62.87-52.16-91.75-20.06-28.55-42.96-55.4-68.09-79.81-25.07-24.36-52.55-46.49-81.67-65.76-29.34-19.42-60.6-36.11-92.89-49.6-56.82-23.73-116.2-37.55-176.97-41.22,60.74-3.7,120.12-17.63,176.97-41.53,32.28-13.58,63.54-30.37,92.89-49.92,29.11-19.39,56.59-41.64,81.67-66.13,25.12-24.54,48.03-51.51,68.09-80.18,20.29-29,37.84-59.97,52.16-92.07,24.71-55.4,39.82-113.59,45.08-173.46m1-37.71c-5.59,299.2-256.16,541-550.89,541,294.73,0,545.3,239.8,550.89,539V0h0Z"/>

    <path class="cls-1" d="M.83,24.46c17.64,278.96,245.45,503.59,523.12,515.54C246.28,551.95,18.47,776.58,.83,1055.54V24.46Z"/>
    <path d="M1.33,37.94c5.21,59.81,20.11,117.87,44.45,173.07,28.4,64.4,68.39,122.24,118.87,171.91,24.83,24.44,52.06,46.63,80.93,65.95,29.12,19.49,60.16,36.23,92.25,49.76,56.51,23.82,115.69,37.69,176.37,41.38-60.68,3.69-119.86,17.56-176.37,41.38-32.09,13.53-63.13,30.27-92.25,49.76-28.87,19.32-56.1,41.51-80.93,65.95-50.48,49.67-90.47,107.51-118.87,171.91-24.34,55.2-39.24,113.26-44.45,173.07V37.94M.33,0V1080c5.59-299.2,252.16-540,546.89-540C252.49,540,5.92,299.2,.33,0H.33Z"/>

    <path class="cls-1" d="M1079.83,685.47c-80-.27-145-65.44-145-145.5s65-145.23,145-145.5v291Z"/>
    <path d="M1079.33,394.98v289.99c-38.36-.26-74.38-15.32-101.53-42.47s-42.47-63.8-42.47-102.53,15.08-75.14,42.47-102.53,63.17-42.21,101.53-42.47m1-1c-80.63,0-146,65.37-146,146s65.37,146,146,146V393.97h0Z"/>

    <path class="cls-1" d="M.5,394.48c80,.27,145,65.44,145,145.5S80.5,685.2,.5,685.47V394.48Z"/>
    <path d="M1,394.98c38.36,.26,74.38,15.32,101.53,42.47,27.39,27.39,42.47,63.8,42.47,102.53s-15.08,75.14-42.47,102.53c-27.15,27.15-63.17,42.21-101.53,42.47V394.98M0,393.97v292c80.63,0,146-65.37,146-146S80.63,393.97,0,393.97H0Z"/>

    <path class="cls-1" d="M.5,1079.5c.06-72.66,14.33-143.14,42.4-209.5,27.17-64.24,66.07-121.94,115.62-171.49s107.24-88.45,171.49-115.62c66.51-28.13,137.17-42.4,210-42.4s143.48,14.26,210,42.4c64.24,27.17,121.94,66.07,171.49,115.62s88.45,107.24,115.62,171.49c28.07,66.36,42.33,136.84,42.4,209.5H.5Z"/>
    <path d="M540,541c72.76,0,143.35,14.25,209.8,42.36,31.94,13.51,62.74,30.23,91.56,49.7,28.54,19.28,55.38,41.43,79.77,65.82,24.39,24.39,46.54,51.23,65.82,79.77,19.47,28.81,36.19,59.62,49.7,91.56,27.98,66.15,42.23,136.39,42.36,208.8H1c.13-72.41,14.38-142.66,42.36-208.8,13.51-31.94,30.23-62.74,49.7-91.56,19.28-28.54,41.43-55.38,65.82-79.77,24.39-24.39,51.23-46.54,79.77-65.82,28.81-19.47,59.62-36.19,91.56-49.7,66.45-28.11,137.04-42.36,209.8-42.36m0-1C241.77,540,0,781.77,0,1080H1080c0-298.23-241.77-540-540-540h0Z"/>

    <path class="cls-1" d="M540,539.5c-72.83,0-143.49-14.26-210-42.4-64.24-27.17-121.94-66.07-171.49-115.62s-88.45-107.24-115.62-171.49C14.83,143.64,.56,73.16,.5,.5H1079.5c-.06,72.66-14.33,143.14-42.4,209.5-27.17,64.24-66.07,121.94-115.62,171.49s-107.24,88.45-171.49,115.62c-66.51,28.13-137.17,42.4-210,42.4Z"/>
    <path d="M1079,1c-.13,72.41-14.38,142.66-42.36,208.8-13.51,31.94-30.23,62.74-49.7,91.56-19.28,28.54-41.43,55.38-65.82,79.77-24.39,24.39-51.23,46.54-79.77,65.82-28.81,19.47-59.62,36.19-91.56,49.7-66.45,28.11-137.04,42.36-209.8,42.36s-143.35-14.25-209.8-42.36c-31.94-13.51-62.74-30.23-91.56-49.7-28.54-19.28-55.38-41.43-79.77-65.82-24.39-24.39-46.54-51.23-65.82-79.77-19.47-28.81-36.19-59.62-49.7-91.56C15.38,143.66,1.13,73.41,1,1H1079m1-1H0C0,298.23,241.77,540,540,540S1080,298.23,1080,0h0Z"/>

    <path class="cls-1" d="M235.39,1079.5c.13-81.15,31.79-157.42,89.19-214.81,57.51-57.51,133.98-89.19,215.31-89.19s157.8,31.67,215.31,89.19c57.39,57.39,89.05,133.67,89.19,214.81H235.39Z"/>
    <path d="M539.89,776c41.04,0,80.85,8.04,118.33,23.89,36.2,15.31,68.71,37.23,96.63,65.15s49.84,60.43,65.15,96.63c15.72,37.17,23.76,76.64,23.89,117.33H235.89c.13-40.69,8.16-80.16,23.89-117.33,15.31-36.2,37.23-68.71,65.15-96.63s60.43-49.84,96.63-65.15c37.48-15.85,77.29-23.89,118.33-23.89m0-1c-168.45,0-305,136.55-305,305H844.89c0-168.45-136.55-305-305-305h0Z"/>

    <path class="cls-1" d="M539.89,304.5c-81.33,0-157.8-31.67-215.31-89.19C267.18,157.92,235.52,81.65,235.39,.5H844.39c-.13,81.15-31.79,157.42-89.19,214.81-57.51,57.51-133.98,89.19-215.31,89.19Z"/>
    <path d="M843.89,1c-.13,40.69-8.16,80.16-23.89,117.33-15.31,36.2-37.23,68.71-65.15,96.63-27.92,27.92-60.43,49.84-96.63,65.15-37.48,15.85-77.29,23.89-118.33,23.89s-80.85-8.04-118.33-23.89c-36.2-15.31-68.71-37.23-96.63-65.15-27.92-27.92-49.84-60.43-65.15-96.63-15.72-37.17-23.76-76.64-23.89-117.33H843.89m1-1H234.89c0,168.45,136.55,305,305,305S844.89,168.45,844.89,0h0Z"/>
  </g>
  <g id="Stroke">
  </g>
</svg>