<?xml version="1.0" encoding="utf-8"?>
<!-- Generator: Adobe Illustrator 27.0.1, SVG Export Plug-In . SVG Version: 6.00 Build 0)  -->
<svg version="1.1" xmlns="http://www.w3.org/2000/svg" xmlns:xlink="http://www.w3.org/1999/xlink" x="0px" y="0px"
	 viewBox="0 0 1080 1080" style="enable-background:new 0 0 1080 1080;" xml:space="preserve">
<style type="text/css">
	.st0{fill:#FFFFFF;}
</style>
<g id="Color">
		<rect x="540" y="540.7" class="st0" width="540.1" height="539.7"/>
		<rect x="-0.9" y="0.8" class="st0" width="540" height="539.7"/>
		<rect x="-0.9" y="540.5" class="st0" width="540" height="539.7"/>
		<rect x="540.1" y="0.5" class="st0" width="540" height="539.7"/>
		<rect x="-0.9" y="704.8" class="st0" width="375.6" height="375.3"/>
		<rect x="704.5" y="0.5" class="st0" width="375.6" height="375.3"/>
		<rect x="-0.9" y="867.8" class="st0" width="212.5" height="212.3"/>
		<rect x="867.6" y="0.5" class="st0" width="212.5" height="212.3"/>
</g>
<g id="_x37_">
	<g>
		<g>
			<path d="M1079.6,541.2v538.7H540.5V541.2H1079.6 M1080.6,540.2H539.5v540.7h541.1V540.2L1080.6,540.2z"/>
			<path d="M538.6,1.3V540h-539V1.3H538.6 M539.6,0.3h-541V541h541V0.3L539.6,0.3z"/>
		</g>
	</g>
</g>
<g id="_x36_">
	<g>
		<g>
			<path d="M538.6,541v538.7h-539V541H538.6 M539.6,540h-541v540.7h541V540L539.6,540z"/>
		</g>
	</g>
</g>
<g id="_x35_">
	<g>
		<g>
			<path d="M1079.6,1v538.7h-539V1H1079.6 M1080.6,0h-541v540.7h541V0L1080.6,0z"/>
		</g>
	</g>
</g>
<g id="_x34_">
	<g>
		<g>
			<path d="M374.2,705.3v374.3H-0.4V705.3H374.2 M375.2,704.3H-1.4v376.3h376.6V704.3L375.2,704.3z"/>
		</g>
	</g>
</g>
<g id="_x33_">
	<g>
		<g>
			<path d="M1079.6,1v374.3H705V1H1079.6 M1080.6,0H704v376.3h376.6V0L1080.6,0z"/>
		</g>
	</g>
</g>
<g id="_x32_">
	<g>
		<g>
			<path d="M211.1,868.3v211.3H-0.4V868.3H211.1 M212.1,867.3H-1.4v213.3h213.5V867.3L212.1,867.3z"/>
		</g>
	</g>
</g>
<g id="_x31_">
	<g>
		<g>
			<path d="M1079.6,1v211.3H868.1V1H1079.6 M1080.6,0H867.1v213.3h213.5V0L1080.6,0z"/>
		</g>
	</g>
</g>
</svg>
