<?xml version="1.0" encoding="utf-8"?>
<!-- Generator: Adobe Illustrator 27.0.1, SVG Export Plug-In . SVG Version: 6.00 Build 0)  -->
<svg version="1.1" xmlns="http://www.w3.org/2000/svg" xmlns:xlink="http://www.w3.org/1999/xlink" x="0px" y="0px"
	 viewBox="0 0 1080 1080" style="enable-background:new 0 0 1080 1080;" xml:space="preserve">
<style type="text/css">
	.st0{fill:#FFFFFF;}
</style>
<g id="Color">
	<polygon class="st0" points="0.1,1.9 179,1.8 0.5,539.4 		"/>
	<polygon class="st0" points="0.8,544.4 180.2,1081.6 1.3,1081.8 		"/>
	<polygon class="st0" points="180.4,1.3 359.3,1.2 359.7,538.6 		"/>
	<polygon class="st0" points="360,544.6 360.5,1082 181.6,1082.1 		"/>
	<polygon class="st0" points="360.1,1.7 539,1.5 360.6,539.1 		"/>
	<polygon class="st0" points="360.9,544.1 540.2,1081.3 361.3,1081.5 		"/>
	<polygon class="st0" points="540.4,1 719.3,0.9 719.7,538.3 		"/>
	<polygon class="st0" points="720,544.3 720.5,1081.7 541.6,1081.8 		"/>
	<polygon class="st0" points="720.2,1.4 899.1,1.2 720.6,538.8 		"/>
	<polygon class="st0" points="720.9,543.8 900.2,1081 721.3,1081.2 		"/>
	<polygon class="st0" points="900.4,0.7 1079.3,0.6 1079.8,538 		"/>
	<polygon class="st0" points="1080.1,544 1080.5,1081.4 901.6,1081.5 		"/>
	<polygon class="st0" points="1.1,540.6 179.7,2.4 359.6,541.7 180.6,1081.2 		"/>
	<polygon class="st0" points="361.2,540.3 539.7,2.1 719.7,541.4 540.6,1080.9 		"/>
	<polygon class="st0" points="721.2,540 899.8,1.8 1079.7,541.1 900.6,1080.6 		"/>
</g>
<g id="stroke">
	<path d="M178.3,2.3L1,536.3L0.6,2.4L178.3,2.3 M179.7,1.3L-0.4,1.4l0.4,541L179.7,1.3L179.7,1.3z"/>
	<path d="M1.3,547.4l178.1,533.7l-177.7,0.1L1.3,547.4 M0.3,541.3l0.4,541l180.1-0.1L0.3,541.3L0.3,541.3z"/>
	<path d="M358.8,1.7l0.4,533.8L181.1,1.8L358.8,1.7 M359.8,0.7L179.7,0.8l180.5,540.9L359.8,0.7L359.8,0.7z"/>
	<path d="M359.5,547.6l0.4,533.8l-177.7,0.1L359.5,547.6 M360.5,541.5l-179.7,541.1l180.1-0.1L360.5,541.5L360.5,541.5z"/>
	<path d="M538.3,2L361.1,536L360.6,2.2L538.3,2 M539.7,1L359.6,1.2l0.4,541L539.7,1L539.7,1z"/>
	<path d="M361.4,547.1l178.1,533.7l-177.7,0.1L361.4,547.1 M360.4,541l0.4,541l180.1-0.1L360.4,541L360.4,541z"/>
	<path d="M718.8,1.4l0.4,533.8L541.1,1.5L718.8,1.4 M719.8,0.4L539.7,0.5l180.5,540.9L719.8,0.4L719.8,0.4z"/>
	<path d="M719.6,547.3l0.4,533.8l-177.7,0.1L719.6,547.3 M720.5,541.2l-179.7,541.1l180.1-0.1L720.5,541.2L720.5,541.2z"/>
	<path d="M898.4,1.7l-177.3,534L720.7,1.9L898.4,1.7 M899.8,0.7L719.7,0.9l0.4,541L899.8,0.7L899.8,0.7z"/>
	<path d="M721.4,546.8l178.1,533.7l-177.7,0.1L721.4,546.8 M720.4,540.7l0.4,541l180.1-0.1L720.4,540.7L720.4,540.7z"/>
	<path d="M1078.8,1.1l0.4,533.8L901.1,1.2L1078.8,1.1 M1079.8,0.1L899.8,0.2l180.5,540.9L1079.8,0.1L1079.8,0.1z"/>
	<path d="M1079.6,547.1l0.4,533.8l-177.7,0.1L1079.6,547.1 M1080.6,540.9L900.9,1082l180.1-0.1L1080.6,540.9L1080.6,540.9z"/>
	<path d="M179.7,4l179.4,537.7l-178.5,538L1.7,540.6L179.7,4 M179.7,0.8L0.6,540.6l179.9,542.2l179.6-541.1L179.7,0.8L179.7,0.8z"/>
	<path d="M539.7,3.7l179.4,537.7l-178.5,538l-178.9-539L539.7,3.7 M539.7,0.5L360.7,540.3l179.9,542.2l179.6-541.1L539.7,0.5
		L539.7,0.5z"/>
	<path d="M899.8,3.4l179.4,537.7l-178.5,538L721.7,540L899.8,3.4 M899.8,0.2L720.7,540l179.9,542.2l179.6-541.1L899.8,0.2
		L899.8,0.2z"/>
</g>
</svg>
