<?xml version="1.0" encoding="utf-8"?>
<!-- Generator: Adobe Illustrator 27.0.1, SVG Export Plug-In . SVG Version: 6.00 Build 0)  -->
<svg version="1.1" xmlns="http://www.w3.org/2000/svg" xmlns:xlink="http://www.w3.org/1999/xlink" x="0px" y="0px"
	 viewBox="0 0 1080 1080" style="enable-background:new 0 0 1080 1080;" xml:space="preserve">
<style type="text/css">
	.st0{fill:#FFFFFF;}
</style>
<g id="Color">
		<rect x="359.1" y="3" class="st0" width="59.9" height="1077"/>
		<rect x="419" y="3" class="st0" width="59.9" height="1077"/>
		<rect x="478.9" y="3" class="st0" width="61.2" height="1077"/>
		<rect x="900" y="3" class="st0" width="89.3" height="1077"/>
		<rect x="988.8" y="3" class="st0" width="91.3" height="1077"/>
		<rect x="539.6" y="3" class="st0" width="360.5" height="1077"/>
		<rect x="-0.9" y="3" class="st0" width="360.5" height="1077"/>
</g>
<g id="_x36_">
	<g>
		<g>
			<path d="M418.5,3.5v1076h-58.9V3.5H418.5 M419.5,2.5h-60.9v1078h60.9V2.5L419.5,2.5z"/>
			<path d="M478.4,3.5v1076h-58.9V3.5H478.4 M479.4,2.5h-60.9v1078h60.9V2.5L479.4,2.5z"/>
		</g>
	</g>
</g>
<g id="_x35_">
	<g>
		<g>
			<path d="M539.6,3.5v1076h-60.2V3.5H539.6 M540.6,2.5h-62.2v1078h62.2V2.5L540.6,2.5z"/>
		</g>
	</g>
</g>
<g id="_x34_">
	<g>
		<g>
			<path d="M988.8,3.5v1076h-88.3V3.5H988.8 M989.8,2.5h-90.3v1078h90.3V2.5L989.8,2.5z"/>
		</g>
	</g>
</g>
<g id="_x33_">
	<g>
		<g>
			<path d="M1079.6,3.5v1076h-90.3V3.5H1079.6 M1080.6,2.5h-92.3v1078h92.3V2.5L1080.6,2.5z"/>
		</g>
	</g>
</g>
<g id="_x32_">
	<g>
		<g>
			<path d="M899.6,3.5v1076H540.1V3.5H899.6 M900.6,2.5H539.1v1078h361.5V2.5L900.6,2.5z"/>
		</g>
	</g>
</g>
<g id="_x31_">
	<g>
		<g>
			<path d="M359.1,3.5v1076H-0.4V3.5H359.1 M360.1,2.5H-1.4v1078h361.5V2.5L360.1,2.5z"/>
		</g>
	</g>
</g>
</svg>
