<?xml version="1.0" encoding="utf-8"?>
<!-- Generator: Adobe Illustrator 27.0.1, SVG Export Plug-In . SVG Version: 6.00 Build 0)  -->
<svg version="1.1" xmlns="http://www.w3.org/2000/svg" xmlns:xlink="http://www.w3.org/1999/xlink" x="0px" y="0px"
	 viewBox="0 0 1080 1080" style="enable-background:new 0 0 1080 1080;" xml:space="preserve">
<style type="text/css">
	.st0{fill:#FFFFFF;}
</style>

<g id="Color">
		<polygon class="st0" points="-0.4,1 538.3,1 539.2,1078.4 		"/>
		<polygon class="st0" points="1.4,1080 0.5,2.6 540.1,1080 		"/>
		<polygon class="st0" points="208.5,1 538.6,1 539.2,661.3 		"/>
		<polygon class="st0" points="539.6,1 1078.3,1 1079.2,1078.4 		"/>
		<polygon class="st0" points="540.4,1080 539.5,2.6 1079.7,1080 		"/>
		<polygon class="st0" points="749.5,1 1079.6,1 1080.2,661.3 		"/>
</g>
<g id="_x35_">
	<g>
		<g>
			<path d="M537.8,1.5l0.9,1074.8L0.4,1.5H537.8 M538.8,0.5h-540l540.9,1080L538.8,0.5L538.8,0.5z"/>
			<path d="M1,4.7l538.3,1074.8H1.9L1,4.7 M0,0.5l0.9,1080h540L0,0.5L0,0.5z"/>
		</g>
	</g>
</g>
<g id="_x34_">
	<g>
		<path d="M538.1,1.5l0.5,657.7L209.3,1.5H538.1 M539.1,0.5H207.7l332,662.9L539.1,0.5L539.1,0.5z"/>
	</g>
</g>
<g id="_x33__00000026869015533685603160000016504794671228768695_">
	<g>
		<path d="M1077.8,1.5l0.9,1074.8L540.4,1.5H1077.8 M1078.8,0.5h-540l540.9,1080L1078.8,0.5L1078.8,0.5z"/>
	</g>
</g>
<g id="_x32_">
	<g>
		<g>
			<path d="M540,4.7l538.9,1074.8h-538L540,4.7 M539,0.5l0.9,1080h540.7L539,0.5L539,0.5z"/>
		</g>
	</g>
</g>
<g id="_x31__00000068671825202099691880000007391799684873987514_">
	<g>
		<path d="M1079.1,1.5l0.5,657.7L750.3,1.5H1079.1 M1080.1,0.5H748.7l332,662.9L1080.1,0.5L1080.1,0.5z"/>
	</g>
</g>

</svg>
